<svg width="136" height="136" viewBox="0 0 136 136" fill="none" xmlns="http://www.w3.org/2000/svg">
<path d="M80.1589 83.7385L80.3679 83.3156C80.7005 82.6427 80.7623 81.9207 80.5534 81.1499C80.349 80.3699 79.9023 79.8096 79.2135 79.4692L78.9586 79.3432C78.8243 79.2995 78.7348 79.2665 78.6901 79.2444C78.0639 78.9349 77.2892 79.0046 76.366 79.4536C75.4518 79.907 74.7902 80.5475 74.3812 81.375L74.2935 81.5523C74.1497 81.8433 74.2477 82.0729 74.5877 82.2409C74.7084 82.3345 74.7732 82.3835 74.7821 82.3879L75.084 82.5541L75.1645 82.5939L75.2652 82.6267L77.9292 83.7567L78.4392 83.9409C79.307 84.3698 79.8802 84.3023 80.1589 83.7385ZM72.79 84.5943C72.2776 85.631 72.233 86.6896 72.6562 87.7701C73.0795 88.8506 73.8815 89.6827 75.0624 90.2663C75.5365 90.5006 75.9996 90.6447 76.4517 90.6984C76.9172 90.7474 77.4276 90.7847 77.9827 90.8101C78.5468 90.84 78.8869 90.8836 79.0032 90.9411C79.3611 91.118 79.4434 91.4019 79.2501 91.793C78.9894 92.3204 78.0487 92.5571 76.4281 92.5029C75.376 92.4694 74.3579 92.2095 73.3739 91.7232L73.0787 91.5772C71.3969 90.746 70.2575 89.5379 69.6606 87.9529C69.3399 87.0928 69.2299 86.1445 69.3304 85.1078C69.4354 84.0621 69.7373 83.0345 70.2363 82.0251L70.4047 81.718L70.5598 81.4043C70.9913 80.5312 71.6129 79.7691 72.4245 79.1179C73.2451 78.4712 74.0676 78.012 74.8919 77.7405C76.6301 77.1739 78.3066 77.284 79.9214 78.0708C82.3546 79.2735 83.4974 81.0377 83.3496 83.3636C83.2989 84.0967 83.1478 84.7179 82.896 85.2272L82.7612 85.5C82.4511 86.1275 81.9871 86.4243 81.3693 86.3905C80.756 86.3477 79.4674 85.9258 77.5035 85.1248C75.5395 84.3238 74.4658 83.9063 74.2823 83.8722C73.5976 83.7261 73.1001 83.9668 72.79 84.5943Z" fill="#779B57"/>
<path d="M64.6546 71.9757V71.504C64.6546 70.7533 64.3901 70.0788 63.8613 69.4802C63.3324 68.8716 62.6838 68.5673 61.9154 68.5673H61.631C61.4913 68.5876 61.3965 68.5977 61.3466 68.5977C60.6481 68.5977 59.9845 69.0035 59.3558 69.815C58.7371 70.6265 58.4278 71.4939 58.4278 72.417V72.6148C58.4278 72.9394 58.6174 73.1017 58.9965 73.1017C59.1462 73.1321 59.2261 73.1474 59.236 73.1474L59.5803 73.1626H59.6701L59.7749 73.1474L62.6638 72.98L63.2027 72.9191C64.1706 72.9191 64.6546 72.6046 64.6546 71.9757ZM58.4278 76.008C58.4278 77.1644 58.8568 78.1332 59.715 78.9143C60.5732 79.6954 61.6609 80.086 62.9781 80.086C63.507 80.086 63.986 80.0099 64.4151 79.8577C64.8542 79.6954 65.3282 79.5027 65.8371 79.2795C66.356 79.0563 66.6803 78.9447 66.81 78.9447C67.2092 78.9447 67.4088 79.1628 67.4088 79.599C67.4088 80.1874 66.6703 80.8163 65.1934 81.4859C64.2355 81.9221 63.2076 82.1402 62.11 82.1402H61.7807C59.9046 82.1402 58.3479 81.5619 57.1105 80.4055C56.442 79.7766 55.923 78.9752 55.5538 78.0013C55.1846 77.0174 55 75.9624 55 74.8364L55.015 74.4864V74.1364C55.015 73.1626 55.2345 72.204 55.6736 71.2605C56.1226 70.3171 56.6565 69.5411 57.2752 68.9325C58.5824 67.6543 60.1341 67.0101 61.9303 67C64.6446 67 66.4508 68.0753 67.3489 70.2258C67.6283 70.9055 67.768 71.5294 67.768 72.0974V72.4018C67.768 73.1017 67.4836 73.5734 66.9148 73.8169C66.346 74.0502 65.0038 74.2429 62.8883 74.3951C60.7728 74.5473 59.6252 74.6487 59.4456 74.6994C58.767 74.8719 58.4278 75.3081 58.4278 76.008Z" fill="#779B57"/>
<path d="M89.3915 73.2905L88.5721 73.3701C85.6619 73.6528 84.1848 73.567 84.1407 73.1127C84.1152 72.8502 84.3306 72.5388 84.7868 72.1785C85.253 71.8173 85.5341 71.3568 85.6302 70.7971C85.7351 70.2264 85.663 68.6587 85.4139 66.0942C85.1648 63.5296 84.9486 62.0779 84.7652 61.739C84.5919 61.3991 84.2987 61.1167 83.8859 60.8918C83.4721 60.6569 83.2548 60.4334 83.2342 60.2213C83.2127 59.9992 83.3934 59.5893 83.7765 58.9915C84.1685 58.3827 84.4156 57.6758 84.5179 56.8709C84.7845 54.8678 85.2769 53.3829 85.9951 52.4162C86.9073 51.1759 88.287 50.466 90.1344 50.2866C91.0283 50.1997 91.7591 50.2918 92.3268 50.5628C92.8936 50.8237 93.2015 51.2065 93.2505 51.7114C93.2996 52.2162 93.2018 52.6028 92.9571 52.8712C92.7224 53.1386 92.4561 53.2868 92.1582 53.3157C91.8701 53.3437 91.3757 53.2083 90.675 52.9094C89.9841 52.6096 89.4699 52.4761 89.1322 52.5089C88.5859 52.562 88.1976 52.9513 87.9673 53.677C87.746 54.3915 87.6756 55.1628 87.756 55.9907C87.8364 56.8186 88.0641 57.408 88.4391 57.7589C88.571 57.8785 89.039 58.1032 89.843 58.4327C90.646 58.7522 91.0622 59.0634 91.0917 59.3663C91.1142 59.5985 90.745 59.8739 89.9839 60.1924C89.2218 60.5009 88.7601 60.8056 88.5989 61.1067C88.3271 61.6121 88.3173 63.1622 88.5694 65.757C88.8205 68.3418 89.0609 69.888 89.2907 70.3956C89.5304 70.9023 89.9376 71.3265 90.5122 71.6682C91.0867 72.0098 91.3843 72.2867 91.4049 72.4987C91.4432 72.8925 90.772 73.1564 89.3915 73.2905Z" fill="#779B57"/>
<path d="M78.209 63.8244H77.3857C74.4619 63.8244 73 63.5961 73 63.1396C73 62.8759 73.2445 62.5868 73.7334 62.2723C74.2324 61.9578 74.5567 61.5267 74.7064 60.9789C74.8661 60.421 74.9459 58.8537 74.9459 56.2771C74.9459 53.7005 74.871 52.2347 74.7214 51.8796C74.5817 51.5246 74.3172 51.2152 73.928 50.9514C73.5389 50.6775 73.3443 50.4341 73.3443 50.221C73.3443 49.9979 73.5638 49.6073 74.0029 49.0494C74.4519 48.4813 74.7663 47.8017 74.9459 47.0104C75.4049 45.0424 76.0386 43.6121 76.8469 42.7194C77.8747 41.5731 79.3166 41 81.1727 41C82.0708 41 82.7893 41.1623 83.3282 41.4869C83.867 41.8014 84.1364 42.2122 84.1364 42.7194C84.1364 43.2266 84.0017 43.602 83.7323 43.8454C83.4729 44.0889 83.1934 44.2106 82.8941 44.2106C82.6047 44.2106 82.1257 44.028 81.4571 43.6628C80.7985 43.2977 80.2996 43.1151 79.9603 43.1151C79.4114 43.1151 78.9873 43.465 78.688 44.165C78.3986 44.8548 78.2539 45.6156 78.2539 46.4474C78.2539 47.2792 78.4235 47.8879 78.7628 48.2734C78.8826 48.4052 79.3266 48.6741 80.095 49.0798C80.8634 49.4754 81.2476 49.8254 81.2476 50.1297C81.2476 50.3631 80.8534 50.6014 80.0651 50.8449C79.2767 51.0782 78.7878 51.3369 78.5982 51.6209C78.2788 52.0977 78.1192 53.6396 78.1192 56.2467C78.1192 58.8436 78.209 60.4058 78.3886 60.9333C78.5782 61.4608 78.9424 61.9223 79.4813 62.318C80.0202 62.7136 80.2896 63.0179 80.2896 63.2309C80.2896 63.6266 79.5961 63.8244 78.209 63.8244Z" fill="#779B57"/>
<path d="M60.323 44.0451V44.6081C60.323 46.3326 60.6523 47.763 61.3109 48.8991C61.6202 49.4367 62.0144 49.8628 62.4934 50.1773C62.9724 50.4917 63.4563 50.649 63.9453 50.649H64.2447C65.1528 50.649 65.9361 50.2026 66.5947 49.3099C67.2633 48.4071 67.5976 47.1289 67.5976 45.4754V44.3951C67.5976 42.7619 67.2633 41.3772 66.5947 40.2411C65.9361 39.0948 65.0979 38.5216 64.08 38.5216H63.616C62.698 38.5216 61.9196 39.0238 61.2809 40.028C60.6423 41.0323 60.323 42.3713 60.323 44.0451ZM71.205 44.106V44.8668C71.205 45.6682 71.0453 46.5457 70.726 47.4992C70.0574 49.4875 68.7252 50.8772 66.7294 51.6685C65.8613 52.0134 65.023 52.1858 64.2147 52.1858H63.7208C61.8148 52.1858 60.2232 51.5366 58.9459 50.2381C58.3671 49.6498 57.8981 48.8737 57.5389 47.91C57.1796 46.9464 57 45.9218 57 44.8364V44.5777C57 43.5937 57.1696 42.5996 57.5089 41.5953C58.1675 39.6375 59.4598 38.2782 61.3857 37.5174C62.2539 37.1725 63.0871 37 63.8854 37H64.6339C65.522 37 66.3951 37.2029 67.2533 37.6086C68.8799 38.3796 70.0125 39.607 70.6511 41.291C71.0203 42.2851 71.205 43.2234 71.205 44.106Z" fill="#779B57"/>
<path d="M50.0616 45.3518C49.6425 45.3518 49.0587 44.9106 48.3103 44.028C47.5719 43.1455 46.7137 42.7042 45.7358 42.7042C44.7678 42.7042 43.9545 43.1962 43.2959 44.1802C42.6373 45.154 42.308 46.5387 42.308 48.3342C42.308 50.1297 42.7121 51.5347 43.5204 52.5491C44.3387 53.5534 45.4015 54.0555 46.7087 54.0555C47.4272 54.0555 48.0259 53.9642 48.5049 53.7816C48.9939 53.599 49.4429 53.4063 49.8521 53.2034C50.2712 52.9904 50.5655 52.8839 50.7352 52.8839C51.0246 52.8839 51.1693 53.0766 51.1693 53.4621C51.1693 54.0505 50.5855 54.6338 49.418 55.212C48.2504 55.7902 47.1178 56.0793 46.0202 56.0793C43.8847 56.0793 42.1683 55.3996 40.871 54.0403C40.3422 53.4824 39.8981 52.7672 39.5389 51.8948C39.1796 51.0123 39 50.0689 39 49.0646V48.319C39 48.2987 39 48.2734 39 48.2429C39 48.2226 39 48.2024 39 48.1821C39 47.2995 39.1946 46.3865 39.5838 45.4431C40.3521 43.5969 41.5895 42.3187 43.2959 41.6086C44.2838 41.2029 45.2667 41 46.2447 41H46.589C47.9361 41 49.0787 41.2384 50.0167 41.7152C50.7751 42.1006 51.1543 42.7448 51.1543 43.6476C51.1543 44.2461 51.0345 44.6823 50.7951 44.9562C50.5655 45.22 50.3211 45.3518 50.0616 45.3518Z" fill="#779B57"/>
<path d="M113.234 52L84.3793 102.31H118" stroke="#779B57" stroke-width="3"/>
<path d="M51.6207 102.31H85.2414" stroke="#779B57" stroke-width="3"/>
<path d="M22.7662 52L51.6207 102.31H18" stroke="#779B57" stroke-width="3"/>
<path d="M68 34.5C81.7068 34.5 94.0596 36.1129 102.938 38.6875C107.386 39.9777 110.878 41.4851 113.223 43.0928C115.615 44.7334 116.5 46.2488 116.5 47.5C116.5 48.7512 115.615 50.2666 113.223 51.9072C110.878 53.5149 107.386 55.0223 102.938 56.3125C94.0596 58.8871 81.7068 60.5 68 60.5C54.2932 60.5 41.9404 58.8871 33.0625 56.3125C28.6136 55.0223 25.1221 53.5149 22.7773 51.9072C20.3845 50.2666 19.5 48.7512 19.5 47.5C19.5 46.2488 20.3845 44.7334 22.7773 43.0928C25.1221 41.4851 28.6136 39.9777 33.0625 38.6875C41.9404 36.1129 54.2932 34.5 68 34.5Z" stroke="#779B57" stroke-width="3"/>
</svg>
