<svg width="110" height="95" viewBox="0 0 110 95" fill="none" xmlns="http://www.w3.org/2000/svg">
<path d="M74.9232 61.2215L75.1657 60.731C75.5515 59.9503 75.6232 59.1129 75.3809 58.2187C75.1437 57.3139 74.6256 56.664 73.8266 56.2691L73.5308 56.1229C73.3751 56.0722 73.2713 56.034 73.2195 56.0084C72.4931 55.6494 71.5944 55.7302 70.5235 56.251C69.463 56.777 68.6955 57.5199 68.2211 58.4799L68.1194 58.6856C67.9525 59.0231 68.0663 59.2894 68.4606 59.4843C68.6006 59.5929 68.6758 59.6497 68.6862 59.6548L69.0364 59.8476L69.1298 59.8938L69.2466 59.9318L72.3368 61.2426L72.9284 61.4563C73.935 61.9538 74.6 61.8755 74.9232 61.2215ZM66.3753 62.2142C65.7809 63.4168 65.7292 64.6448 66.2202 65.8982C66.7111 67.1515 67.6415 68.1167 69.0113 68.7938C69.5613 69.0656 70.0985 69.2327 70.6229 69.295C71.1629 69.3519 71.7549 69.3951 72.3989 69.4246C73.0532 69.4592 73.4478 69.5099 73.5827 69.5765C73.9978 69.7817 74.0932 70.1111 73.869 70.5647C73.5666 71.1765 72.4754 71.451 70.5955 71.3882C69.3751 71.3494 68.1941 71.0479 67.0526 70.4837L66.7102 70.3145C64.7593 69.3502 63.4376 67.9488 62.7453 66.1102C62.3733 65.1125 62.2456 64.0124 62.3621 62.8099C62.4839 61.5969 62.8342 60.4049 63.413 59.234L63.6084 58.8777L63.7883 58.5138C64.2889 57.5011 65.0099 56.617 65.9514 55.8617C66.9032 55.1114 67.8573 54.5788 68.8135 54.2639C70.8299 53.6066 72.7746 53.7343 74.6477 54.647C77.4703 56.0421 78.7959 58.0886 78.6245 60.7866C78.5657 61.637 78.3903 62.3576 78.0983 62.9483L77.9419 63.2648C77.5822 63.9927 77.044 64.3371 76.3273 64.2979C75.6159 64.2481 74.1211 63.7587 71.8429 62.8296C69.5648 61.9005 68.3193 61.4161 68.1064 61.3766C67.3121 61.2071 66.7351 61.4863 66.3753 62.2142Z" fill="#49672E"/>
<path d="M49.2884 54.2082V53.661C49.2884 52.7903 48.9816 52.0077 48.3681 51.3135C47.7546 50.6074 47.0022 50.2544 46.1109 50.2544H45.781C45.6189 50.278 45.509 50.2897 45.4511 50.2897C44.6408 50.2897 43.871 50.7604 43.1418 51.7018C42.4241 52.6432 42.0653 53.6493 42.0653 54.7201V54.9496C42.0653 55.3261 42.2852 55.5144 42.7251 55.5144C42.8987 55.5497 42.9913 55.5673 43.0029 55.5673L43.4022 55.585H43.5064L43.628 55.5673L46.9791 55.3732L47.6041 55.3026C48.727 55.3026 49.2884 54.9378 49.2884 54.2082ZM42.0653 58.8857C42.0653 60.2272 42.563 61.3509 43.5585 62.257C44.554 63.1631 45.8157 63.6161 47.3437 63.6161C47.9572 63.6161 48.5128 63.5279 49.0106 63.3513C49.5199 63.1631 50.0697 62.9395 50.6601 62.6806C51.262 62.4217 51.6382 62.2923 51.7887 62.2923C52.2517 62.2923 52.4832 62.5453 52.4832 63.0513C52.4832 63.7338 51.6266 64.4634 49.9135 65.24C48.8022 65.746 47.6099 65.999 46.3366 65.999H45.9546C43.7784 65.999 41.9727 65.3282 40.5373 63.9868C39.7617 63.2572 39.1598 62.3276 38.7315 61.1979C38.3032 60.0565 38.0891 58.8327 38.0891 57.5266L38.1064 57.1206V56.7146C38.1064 55.585 38.3611 54.473 38.8704 53.3786C39.3913 52.2843 40.0106 51.3841 40.7283 50.678C42.2447 49.1954 44.0447 48.4482 46.1283 48.4364C49.2768 48.4364 51.372 49.6837 52.4138 52.1784C52.7379 52.9668 52.8999 53.6905 52.8999 54.3494V54.7024C52.8999 55.5144 52.57 56.0616 51.9102 56.344C51.2504 56.6146 49.6935 56.8382 47.2395 57.0147C44.7855 57.1912 43.4543 57.3089 43.246 57.3677C42.4588 57.5678 42.0653 58.0737 42.0653 58.8857Z" fill="#49672E"/>
<path d="M83.3732 53.5622L82.4321 53.3998C79.0899 52.8229 77.4638 52.2736 77.5539 51.7518C77.6059 51.4503 77.9424 51.1681 78.5634 50.9051C79.1958 50.644 79.6516 50.2152 79.9308 49.6185C80.2233 49.0123 80.6238 47.2365 81.1321 44.2911C81.6404 41.3458 81.8441 39.6555 81.743 39.2201C81.6534 38.7867 81.4121 38.3808 81.0193 38.0025C80.6285 37.6127 80.4541 37.296 80.4961 37.0525C80.5401 36.7974 80.8681 36.3942 81.4801 35.8431C82.1055 35.2823 82.5989 34.5674 82.9603 33.6984C83.8733 31.5394 84.8798 30.0294 85.9799 29.1684C87.3809 28.0609 89.1423 27.6902 91.264 28.0563C92.2906 28.2335 93.0798 28.5608 93.6318 29.0382C94.1857 29.504 94.4126 30.0267 94.3126 30.6065C94.2125 31.1863 93.9845 31.5888 93.6285 31.8139C93.2838 32.041 92.9404 32.1251 92.5982 32.066C92.2674 32.0089 91.7559 31.7057 91.0637 31.1563C90.3829 30.609 89.8486 30.3018 89.4608 30.2349C88.8334 30.1266 88.2795 30.443 87.7992 31.184C87.3324 31.9154 87.0169 32.7566 86.8527 33.7074C86.6886 34.6583 86.7625 35.3875 87.0743 35.8951C87.1851 36.0695 87.6397 36.4644 88.438 37.0798C89.2383 37.6836 89.6084 38.1594 89.5483 38.5073C89.5023 38.774 89.0047 38.9688 88.0555 39.0915C87.1084 39.2027 86.4984 39.4019 86.2256 39.6892C85.7665 40.1712 85.2798 41.9023 84.7655 44.8824C84.2532 47.8509 84.0476 49.6544 84.1489 50.2928C84.2616 50.9332 84.5869 51.5327 85.1248 52.0912C85.6627 52.6498 85.9106 53.0508 85.8686 53.2943C85.7906 53.7465 84.9588 53.8358 83.3732 53.5622Z" fill="#49672E"/>
<path d="M65.8627 48.8051H64.9078C61.5161 48.8051 59.8203 48.5404 59.8203 48.0108C59.8203 47.7049 60.1039 47.3695 60.6711 47.0047C61.2499 46.64 61.6261 46.1398 61.7997 45.5044C61.9849 44.8572 62.0775 43.0392 62.0775 40.0503C62.0775 37.0614 61.9907 35.3611 61.8171 34.9492C61.655 34.5374 61.3483 34.1785 60.8968 33.8725C60.4454 33.5548 60.2197 33.2724 60.2197 33.0253C60.2197 32.7664 60.4743 32.3134 60.9837 31.6662C61.5046 31.0072 61.8692 30.2188 62.0775 29.301C62.61 27.0181 63.3451 25.3589 64.2827 24.3234C65.475 22.9937 67.1476 22.3289 69.3007 22.3289C70.3425 22.3289 71.1759 22.5171 71.801 22.8937C72.4261 23.2585 72.7386 23.7351 72.7386 24.3234C72.7386 24.9118 72.5823 25.3472 72.2698 25.6296C71.9688 25.912 71.6447 26.0532 71.2974 26.0532C70.9618 26.0532 70.4061 25.8414 69.6306 25.4178C68.8666 24.9941 68.2878 24.7823 67.8942 24.7823C67.2576 24.7823 66.7656 25.1883 66.4184 26.0002C66.0827 26.8004 65.9148 27.683 65.9148 28.6479C65.9148 29.6128 66.1116 30.3188 66.5052 30.766C66.6441 30.9189 67.1592 31.2308 68.0505 31.7015C68.9418 32.1604 69.3875 32.5664 69.3875 32.9194C69.3875 33.19 68.9303 33.4665 68.0158 33.749C67.1013 34.0196 66.5341 34.3197 66.3142 34.6492C65.9438 35.2022 65.7586 36.9908 65.7586 40.015C65.7586 43.0274 65.8627 44.8396 66.0711 45.4515C66.291 46.0634 66.7135 46.5988 67.3386 47.0577C67.9637 47.5166 68.2762 47.8696 68.2762 48.1167C68.2762 48.5757 67.4717 48.8051 65.8627 48.8051Z" fill="#49672E"/>
<path d="M41.9437 28.4929V29.146C41.9437 31.1464 42.3257 32.8056 43.0897 34.1236C43.4485 34.7472 43.9058 35.2414 44.4614 35.6062C45.017 35.971 45.5784 36.1534 46.1456 36.1534H46.4929C47.5463 36.1534 48.4549 35.6356 49.2189 34.6001C49.9945 33.5528 50.3823 32.0702 50.3823 30.1521V28.8989C50.3823 27.0044 49.9945 25.3982 49.2189 24.0802C48.4549 22.7505 47.4826 22.0857 46.3019 22.0857H45.7636C44.6987 22.0857 43.7958 22.6682 43.055 23.8331C42.3141 24.9981 41.9437 26.5513 41.9437 28.4929ZM54.5668 28.5635V29.4461C54.5668 30.3757 54.3816 31.3936 54.0112 32.4997C53.2356 34.8061 51.6903 36.4182 49.3752 37.336C48.3681 37.7361 47.3958 37.9361 46.4582 37.9361H45.8852C43.6743 37.9361 41.828 37.183 40.3463 35.6768C39.6749 34.9943 39.1309 34.0941 38.7141 32.9763C38.2974 31.8584 38.0891 30.6699 38.0891 29.4108V29.1107C38.0891 27.9693 38.2858 26.8161 38.6794 25.6512C39.4434 23.3801 40.9424 21.8033 43.1765 20.9207C44.1836 20.5206 45.1501 20.3206 46.0762 20.3206H46.9443C47.9746 20.3206 48.9874 20.5559 49.9829 21.0266C51.8697 21.9209 53.1835 23.3448 53.9244 25.2981C54.3527 26.4513 54.5668 27.5398 54.5668 28.5635Z" fill="#49672E"/>
<path d="M31.1648 36.4143C30.6786 36.4143 30.0015 35.9025 29.1333 34.8787C28.2767 33.855 27.2812 33.3431 26.1468 33.3431C25.024 33.3431 24.0806 33.9138 23.3166 35.0552C22.5526 36.1849 22.1706 37.7911 22.1706 39.8739C22.1706 41.9567 22.6394 43.5865 23.577 44.7632C24.5262 45.9281 25.759 46.5106 27.2754 46.5106C28.1089 46.5106 28.8034 46.4047 29.359 46.1929C29.9262 45.9811 30.4471 45.7575 30.9217 45.5222C31.4079 45.2751 31.7494 45.1515 31.9461 45.1515C32.2818 45.1515 32.4497 45.3751 32.4497 45.8222C32.4497 46.5047 31.7725 47.1814 30.4182 47.8521C29.0638 48.5228 27.75 48.8582 26.4767 48.8582C23.9995 48.8582 22.0086 48.0698 20.5037 46.493C19.8902 45.8458 19.3751 45.0162 18.9584 44.0042C18.5417 42.9805 18.3333 41.8861 18.3333 40.7212V39.8563C18.3333 39.8327 18.3333 39.8033 18.3333 39.768C18.3333 39.7445 18.3333 39.7209 18.3333 39.6974C18.3333 38.6737 18.5591 37.6146 19.0105 36.5203C19.9018 34.3786 21.3372 32.8959 23.3166 32.0722C24.4626 31.6016 25.6028 31.3662 26.7372 31.3662H27.1365C28.6992 31.3662 30.0246 31.6427 31.1127 32.1958C31.9924 32.643 32.4323 33.3902 32.4323 34.4375C32.4323 35.1317 32.2934 35.6377 32.0156 35.9554C31.7494 36.2614 31.4658 36.4143 31.1648 36.4143Z" fill="#49672E"/>
<path d="M106.325 20.5144C106.58 20.0019 106.132 21.7946 106.589 20.6365C106.556 20.8906 106.524 21.1464 106.491 21.4005C106.395 21.4473 106.299 21.4956 106.202 21.5422C106.243 21.2002 106.283 20.858 106.324 20.5143C106.324 20.5143 106.324 20.5144 106.325 20.5144ZM105.371 19.8435C105.546 20.1999 105.417 21.1935 105.846 20.1785C105.781 20.0778 105.716 19.9751 105.651 19.8745C105.787 19.5195 105.924 19.1622 106.059 18.8071C106.054 18.6686 106.049 18.5302 106.045 18.3918C106.218 18.2518 106.392 18.1132 106.565 17.973C106.515 18.1185 106.465 18.2659 106.415 18.4114C106.413 19.0258 106.342 19.5585 106.208 20.366C106.255 20.3022 106.302 20.2383 106.349 20.1745C106.213 20.5706 106.076 20.9664 105.94 21.3606C105.952 20.9967 105.967 20.5901 105.978 20.253C105.653 20.7306 105.595 21.6771 105.549 22.1664C105.485 22.8327 105.406 22.6633 105.356 23.1572C105.348 23.236 105.431 23.2618 105.402 23.4151C105.258 24.1885 104.919 25.6788 104.892 24.7618C105.167 23.4965 105.224 22.3813 105.528 21.1468C105.237 21.4309 105.291 20.759 105.371 19.8435ZM101.515 43.3308C101.467 42.9207 101.671 42.1467 101.86 41.6326C101.86 41.632 101.86 41.6313 101.86 41.6307C101.902 41.5176 102.117 41.2857 102.036 41.6662C101.904 42.2863 101.586 42.535 101.698 42.8971C101.637 43.0367 101.578 43.1843 101.515 43.3308ZM101.266 44.6864C101.128 45.0551 100.964 44.8422 101.112 44.3751C101.112 44.3751 101.112 44.375 101.111 44.375C101.173 44.1801 101.251 44.6029 101.234 43.8559C101.385 43.7346 101.524 43.6132 101.671 43.4926C101.638 43.6682 101.61 43.8286 101.576 44.0127C101.399 43.8484 101.404 44.3176 101.266 44.6864ZM104.865 25.4268C105.016 25.5198 105.064 25.2682 105.261 24.8629C105.176 25.2659 105.092 25.6689 105.008 26.0702C104.96 25.855 104.912 25.6419 104.865 25.4268ZM106.754 15.9414C106.754 15.9408 106.754 15.9401 106.754 15.9395C106.756 15.8023 106.757 15.6646 106.759 15.5291C106.83 15.4611 106.9 15.3939 106.97 15.3259C107.01 14.8478 107.051 14.3674 107.092 13.8894C107.246 13.9797 107.055 14.8137 107.081 15.2998C106.897 15.9775 106.734 16.2891 106.583 16.305C106.64 16.1843 106.697 16.0639 106.754 15.9414ZM46.51 93.6781C46.3507 93.7592 46.1933 93.8405 46.0339 93.9218C46.2458 93.9583 46.456 93.986 46.6697 94.0282C47.2285 93.6757 47.281 93.9864 48.0132 93.9629C50.2575 93.8902 49.6621 93.3564 51.689 94.1378C50.0616 94.1053 50.687 94.473 49.7059 94.7639C49.5027 94.5465 50.4749 94.0526 49.8161 93.9525C48.6809 94.1856 47.5894 94.4057 46.3299 94.562C46.3666 94.6 46.4032 94.6381 46.44 94.676C46.6398 94.651 46.8378 94.6259 47.0376 94.601C46.8221 94.7038 46.6114 94.8059 46.3924 94.9103C46.6692 94.6773 45.9638 94.8104 46.0582 94.5435C46.1002 94.4247 46.412 94.2591 46.5959 94.1455C46.1212 94.0854 45.6344 94.0302 45.1544 93.9713C45.4031 93.8759 45.6516 93.7807 45.8985 93.6859C46.1016 93.6826 46.3032 93.6803 46.5063 93.6771C46.5076 93.6774 46.5088 93.6778 46.51 93.6781ZM0.287886 12.7199C0.780333 13.2353 1.06181 14.2957 0.770506 14.9427C0.609769 14.2012 0.4487 13.4613 0.287886 12.7199ZM106.456 16.3261C106.497 16.2646 106.536 16.2052 106.576 16.1437C106.568 16.4493 106.559 16.7568 106.551 17.0626C106.462 17.1034 106.372 17.1456 106.282 17.1882C106.34 16.9015 106.399 16.6129 106.456 16.3261ZM102.814 35.2558C102.851 35.0385 102.858 35.0199 102.923 34.7531C102.923 34.7534 102.923 34.7537 102.923 34.7539C102.949 34.6481 103.175 33.7651 103.222 33.8781C103.136 34.3219 103.042 34.7948 102.953 35.2487C102.906 35.2535 102.862 35.2476 102.814 35.2558ZM103.881 30.0431C103.882 30.0425 103.882 30.0419 103.882 30.0413C103.924 29.8819 103.974 29.7331 104.011 29.5672C103.995 30.1877 103.792 30.2453 103.737 30.8007C103.682 31.3562 103.719 31.7138 103.373 32.1245C103.369 31.9449 103.351 31.7488 103.342 31.5628C103.596 30.8101 103.542 30.5824 103.566 29.9422C103.671 29.976 103.776 30.0093 103.881 30.0431ZM56.5019 94.4512C56.6526 94.2586 56.8206 94.4463 56.8381 94.4485C56.8377 94.4487 56.8374 94.4489 56.8371 94.4491C58.1716 94.2661 56.6634 94.5561 57.923 94.5801C57.7356 94.6287 57.5512 94.6801 57.3656 94.7295C57.0783 94.6387 56.7822 94.5353 56.5019 94.4512ZM93.7498 75.9698C93.7976 75.9783 93.8464 75.9846 93.8942 75.993C93.5518 76.6954 93.6237 76.9612 93.1725 77.4605C93.3771 76.9672 93.5699 76.4692 93.7493 75.9696C93.7495 75.9696 93.7497 75.9697 93.7498 75.9698ZM101.798 38.9425C101.889 38.1046 101.979 37.4895 102.25 36.7221C102.251 36.7216 102.251 36.721 102.251 36.7204C102.267 36.6762 102.303 36.9126 102.334 36.8572C102.355 36.6917 102.37 36.5196 102.389 36.3519C102.456 36.3423 102.523 36.3338 102.59 36.3241C102.481 36.7846 102.371 37.2453 102.261 37.7074C102.312 37.6461 102.363 37.5831 102.414 37.5219C102.355 37.9211 102.296 38.3188 102.238 38.718C102.16 38.5594 102.083 38.4011 102.005 38.2442C101.936 38.4768 101.868 38.71 101.798 38.9425ZM85.6738 85.9175C85.8108 85.868 85.683 86.1028 85.8714 85.9974C86.0602 85.8913 86.2788 85.5531 86.3143 85.727C86.1186 85.9354 85.9112 86.1533 85.7059 86.3611C86.5971 85.9508 87.0982 85.1065 87.3429 85.3386C86.6334 85.9135 86.1111 86.4423 85.4978 87.0844C85.3563 86.8526 85.8607 86.1094 85.2829 86.2729C85.413 86.1569 85.5477 86.0328 85.6727 85.9192C85.6731 85.9187 85.6734 85.9181 85.6738 85.9175ZM106.723 3.87157C106.844 3.36682 107.023 2.19085 107.256 1.56938C107.314 1.41655 107.732 0.953135 107.772 0.963924C107.904 1.00684 107.789 1.65278 108.021 0.982971C107.974 1.21452 107.933 1.44011 107.887 1.67028C107.988 1.6477 108.088 1.62524 108.188 1.60428C108.231 1.32177 108.275 1.03891 108.319 0.756391C108.352 0.748753 108.385 0.741203 108.418 0.733583C108.212 1.73941 108.451 1.16934 108.454 1.7133C108.607 1.24389 108.76 0.770761 108.912 0.302847C108.849 0.577912 108.778 0.903071 108.721 1.14528C108.87 1.20928 108.95 0.620013 108.999 0.526097C109.274 -0.00281379 108.616 2.83991 108.798 3.12024C108.915 2.66846 109.035 2.194 109.153 1.73172C109.154 1.87139 109.155 2.01285 109.157 2.15254C108.789 3.18104 108.495 4.35826 108.148 5.57301C108.132 5.68594 108.117 5.79908 108.101 5.91021C108.18 5.8922 108.258 5.8759 108.337 5.85787C108.312 6.028 108.286 6.2002 108.261 6.37033C108.121 5.82559 107.988 6.51387 107.674 7.31376C107.679 6.85537 107.84 6.32132 107.676 6.32724C107.49 7.86612 106.958 9.60466 106.799 11.1061C106.76 11.4788 106.969 11.5198 106.777 12.3761C106.76 12.3422 106.719 12.3288 106.693 12.3038C106.494 13.8115 106.375 14.7268 105.96 16.2515C106.055 16.1779 106.15 16.1057 106.245 16.032C106.272 15.6961 106.299 15.3595 106.326 15.0254C106.497 14.8277 106.488 15.169 106.681 14.1893C106.84 13.3867 106.689 13.8531 106.696 13.6274C106.704 13.3217 106.855 13.0825 106.862 12.7533C106.868 12.4989 106.712 12.7438 106.866 12.1084C106.948 12.3929 107.033 12.6837 107.117 12.9705C107.056 13.1209 106.995 13.2699 106.933 13.4201C106.929 13.2548 106.924 13.0922 106.92 12.9269C106.873 13.4966 106.83 14.0349 106.783 14.6242C106.625 14.3975 106.58 15.0073 106.539 15.335C106.475 15.8457 106.426 15.3872 106.383 15.7216C106.34 16.0561 106.421 16.4427 106.27 17.0325C106.246 16.6951 106.08 17.1138 106.015 17.0133C105.951 16.9127 106.059 16.2786 105.849 16.8663C105.683 18.0447 106.246 16.8435 106.14 17.6406C106.015 18.5982 105.458 18.7197 105.405 18.416C105.364 18.177 105.535 17.4182 105.495 17.1778C105.064 18.5115 105.367 18.5852 105.38 18.831C105.429 19.7238 104.958 19.0355 104.967 20.0829C104.861 20.0417 104.765 20.0065 104.663 19.9663C104.648 20.1436 104.651 20.264 104.624 20.4766C104.965 19.9026 104.853 20.4061 104.801 20.6655C104.719 21.0744 104.951 20.4643 104.956 20.578C104.97 20.8846 104.844 21.3397 104.996 21.0756C104.926 21.1938 104.854 21.3226 104.784 21.4442C104.742 21.9327 104.984 23.1497 105.103 22.0621C105.256 22.1966 105.104 22.5256 105.024 22.7901C104.944 23.0545 105.056 23.0718 104.988 23.3048C104.719 24.2316 104.651 23.576 104.533 23.3967C104.386 24.6627 104.698 23.4571 104.408 25.266C104.497 25.4644 104.791 24.6611 104.725 25.3663C104.488 25.4506 104.233 25.9282 103.964 26.905C103.994 27.0112 104.024 27.1172 104.055 27.2234C103.748 27.7245 103.595 27.4059 103.642 28.4574C103.294 27.8276 103.512 28.2563 103.145 29.1151C103.07 29.2895 103.061 28.8497 102.961 29.0941C102.916 29.2049 102.931 29.4991 102.818 29.7691C102.763 29.901 102.453 30.507 102.447 30.9687C102.738 30.6878 102.758 31.5716 103.09 30.8842C102.776 32.2149 102.694 33.1743 102.689 31.611C102.552 31.9373 102.415 32.2638 102.278 32.59C102.284 32.8379 102.289 33.0877 102.295 33.3373C102.101 33.3356 102.055 33.2887 101.898 34.2288C101.937 33.8148 101.974 33.4025 102.012 32.9869C101.978 32.9655 101.95 32.901 101.911 32.9072C101.88 33.4197 101.625 34.8283 101.606 35.1783C101.587 35.5284 101.734 34.8747 101.763 34.9825C102 35.8792 101.716 35.7546 101.667 36.3537C101.639 36.7055 101.849 35.8945 101.829 36.0817C101.756 36.7761 101.477 37.0486 101.351 37.6521C101.518 37.4623 101.685 37.2746 101.851 37.0901C101.718 37.7227 101.575 38.429 101.496 39.0263C101.466 39.2608 101.593 39.1046 101.591 39.1436C101.586 39.3374 101.484 40.1104 101.468 40.1913C101.348 40.7993 101.216 40.7907 101.09 41.3799C101.126 41.1458 101.16 40.9258 101.194 40.697C101.006 40.5517 100.819 40.4045 100.631 40.2593C100.498 40.8347 100.365 41.4103 100.232 41.9874C100.388 41.5776 100.545 41.1661 100.7 40.7562C100.735 41.4531 100.771 42.1504 100.81 42.8481C100.636 43.1723 100.462 43.4949 100.287 43.8188C100.125 44.7618 100.594 44.66 100.127 45.0287C100.104 45.3115 100.08 45.5945 100.056 45.8773C100.01 45.8269 99.9638 45.7768 99.9178 45.7264C99.8838 46.0663 99.8499 46.4061 99.8167 46.7462C100.079 46.4347 100.35 46.1319 100.604 45.8223C100.516 46.4868 100.351 46.4665 100.291 46.5562C100.131 46.7939 100.174 47.3383 100.033 47.5243C99.9849 47.587 100.006 46.9225 99.8372 47.1189C99.8051 47.1574 99.1739 47.9253 99.1681 48.4954C99.2535 48.5019 99.3642 48.4801 99.4592 48.4761C99.3618 49.2247 98.849 49.5129 98.7463 49.3903C98.7519 49.8007 98.6423 50.3768 98.7606 50.4847C98.7232 50.6863 98.6859 50.8863 98.6485 51.0879C98.3624 50.8122 98.2513 51.662 98.5242 51.7743C98.6011 51.4306 98.6784 51.0865 98.7552 50.7427C99.0485 51.0737 99.4692 50.0669 98.709 52.1851C98.4437 52.5658 98.8831 51.4481 98.679 51.7608C98.4808 52.3356 98.4352 52.9036 98.1947 53.4394C97.8944 54.106 97.9152 53.2154 97.7876 54.884C99.0219 51.396 98.0313 55.4459 97.8536 57.1653C97.2522 57.5264 96.7975 58.9169 96.553 60.9088C96.7389 60.7337 96.7895 60.1017 96.9089 59.7558C97.0281 59.4099 97.0356 59.8117 97.1918 59.3824C97.3481 58.953 97.6278 58.0303 97.8178 57.6019C97.8218 57.998 97.6392 59.9123 97.6569 58.6258C97.3304 59.5229 97.0964 59.9279 96.8384 61.0693C96.9948 61.4584 97.1406 61.4614 96.924 62.5811C96.7415 61.8561 96.2665 63.0823 95.9962 62.7365C96.2337 61.9595 96.4602 62.4664 96.704 62.0385C96.7285 61.9945 96.7981 61.2399 96.8384 61.0693C96.4056 61.7576 96.246 61.9936 96.0028 61.4672C95.9242 62.0001 95.8145 62.3193 95.9664 62.4C95.8738 62.4957 95.7809 62.5919 95.6884 62.6858C95.6549 62.8576 95.6297 63.0133 95.5911 63.1948C95.8873 62.9939 95.637 63.4487 95.6776 63.8162C95.7187 64.1837 96.0068 63.7599 95.8172 64.7083C95.939 64.404 96.0469 64.1251 96.163 63.8304C96.1027 64.4545 96.0428 65.0806 95.9836 65.7049C96.2215 65.3061 96.631 64.4205 96.8235 64.4859C96.6928 64.7525 96.6329 65.7443 96.6176 65.8511C96.557 66.2643 96.4754 66.016 96.4662 66.0463C96.2775 66.6765 96.2154 67.2144 95.9751 67.4196C95.9667 67.8477 95.8764 68.1687 95.7895 68.5738C95.7745 68.6437 95.7594 68.7159 95.7446 68.7914C95.6873 69.0789 95.8401 69.0539 95.7768 69.2161C95.3335 70.2859 95.4422 69.1835 95.2016 71.3979C95.3748 71.171 95.5461 70.9462 95.7144 70.7125C95.6867 70.9655 95.6568 71.2163 95.6233 71.469C95.5581 71.6263 95.4921 71.7812 95.4247 71.9368C95.2144 71.867 95.0039 71.7965 94.7937 71.7269C94.7283 71.8962 94.6616 72.0654 94.5935 72.2329C94.6699 71.9321 94.7424 71.6291 94.8102 71.3255C94.7811 71.2871 94.7513 71.2507 94.7221 71.2125C94.5338 71.6361 94.3369 72.0504 94.1307 72.46C94.201 72.4936 94.2717 72.5273 94.3419 72.561C93.8938 73.5025 93.8252 73.4905 93.6495 74.4839C93.355 75.1777 93.3867 75.8781 93.316 76.3394C93.2067 76.4628 93.0952 76.5864 92.9831 76.7095C92.9954 76.8303 93.0063 76.9521 93.0172 77.0735C92.8427 77.2114 92.6658 77.349 92.4896 77.4816C92.6169 77.6788 92.651 77.768 93.0844 77.0989C93.1946 77.4629 92.4125 78.6458 92.0337 79.0796C91.7506 79.413 91.8176 78.89 91.7663 78.9226C91.5982 79.0291 91.2848 79.665 91.1889 79.7795C90.791 80.2677 90.5479 80.6324 90.1746 81.0588C90.1016 81.1422 89.8061 81.3031 89.7868 81.3206C89.6463 81.4681 89.2855 81.8168 89.2481 81.859C87.2895 84.0255 89.8027 82.056 87.9251 84.0602C88.0403 84.0557 88.1507 84.0549 88.265 84.0502C88.1268 84.2075 87.9854 84.3649 87.8439 84.5196C87.6108 84.6634 87.747 84.3477 87.45 84.7931C87.403 84.6982 87.3559 84.6033 87.3101 84.5078C87.1896 84.7074 87.0723 84.9 86.9431 85.1017C86.4431 85.1147 85.4133 85.9375 85.2102 85.5611C85.145 85.4357 85.7272 84.718 85.2689 84.9304C84.9582 85.1685 85.2666 85.1171 85.153 85.2298C84.3197 86.0359 84.2126 85.8006 83.8875 86.146C83.8927 86.271 83.8953 86.4004 83.8983 86.528C83.739 86.6154 83.5787 86.7016 83.4168 86.7869C83.4248 86.8663 83.4312 86.947 83.4386 87.0267C83.5769 86.9284 83.7313 86.8159 83.8568 86.7238C83.8598 87.076 82.2897 88.3476 82.7839 87.7168C82.9858 87.4631 83.4634 87.158 82.9907 87.1179C82.5898 87.4669 82.1206 87.8475 81.6757 88.1904C81.6241 88.1432 81.5735 88.095 81.5221 88.0476C80.9134 88.4885 81.6345 88.3509 81.7135 88.4718C81.5695 88.5697 81.4227 88.6671 81.2772 88.7625C81.1798 88.7456 81.0841 88.7237 80.9853 88.7093C81.034 88.8015 81.0792 89.0641 80.5843 89.2507C80.2661 89.3671 80.5866 88.8768 80.0565 89.2225C80.1774 89.3419 80.4809 89.4043 79.8835 89.7973C79.7388 89.6808 79.5784 89.5887 79.4452 89.4551C78.7489 90.0119 78.2773 89.9519 77.4248 90.5494C76.8859 90.9266 76.1993 91.6739 75.5662 91.185C75.1139 91.3319 75.3127 91.4376 75.1925 91.5212C74.6217 91.9145 74.0436 91.7543 73.9228 91.7716C73.1352 91.8831 72.8217 92.0818 72.164 92.0871C72.2279 92.2023 72.2752 92.3144 72.3323 92.4278C72.8589 92.0982 73.1483 92.0339 73.9512 91.8325C73.694 91.9383 73.4347 92.0414 73.1733 92.1407C73.2448 92.2274 73.3162 92.3139 73.3866 92.4C75.7289 91.2504 75.3777 92.0447 73.308 92.8112C73.0743 92.6793 72.8373 92.5465 72.6115 92.4075C71.4696 92.9915 70.8267 92.8746 69.4313 93.0305C69.2649 93.0497 68.6741 93.2418 68.413 93.2758C68.4174 93.2761 68.4219 93.2763 68.4263 93.2766C68.2841 93.4771 68.5144 93.5354 68.5605 93.6943C68.4195 93.7319 68.2779 93.7685 68.1358 93.8043C67.8016 93.7126 67.9032 93.603 67.2775 93.685C67.372 93.8026 67.4662 93.9199 67.5625 94.0364C66.8657 94.1009 66.3961 93.9912 65.7511 94.0716C65.859 94.0208 65.9651 93.9693 66.0718 93.9176C64.7216 93.8421 65.6768 93.1376 64.8447 93.4086C64.8066 93.4206 64.7649 93.4347 64.719 93.4509C64.6524 93.3863 64.5876 93.3211 64.521 93.2564C64.6289 93.2525 64.7368 93.2486 64.8447 93.2447C65.1683 93.233 65.4904 93.2165 65.8099 93.1949C65.8158 93.1036 65.8223 93.0127 65.8264 92.9216C65.5014 92.951 65.1736 92.9758 64.8447 92.9952C64.714 93.0029 64.5833 93.0105 64.4529 93.0182C64.5833 92.9945 64.7139 92.9709 64.8447 92.9473C65.0497 92.91 65.2537 92.8708 65.4558 92.8297C65.2522 92.8165 65.0485 92.8012 64.8447 92.7839C64.5167 92.7563 64.1888 92.7287 63.861 92.7009C64.4284 93.0391 63.6927 93.0791 63.8311 93.4134C62.885 93.1361 62.1418 92.7647 60.6753 92.9996C60.3846 93.0465 60.5425 93.2837 59.7174 92.9945C59.9171 93.3716 58.8834 93.5493 59.0163 93.9092C59.3035 93.8912 59.6014 93.8797 59.8799 93.8579C59.5628 93.7343 59.5102 93.3912 59.9919 93.2898C60.6069 93.1609 61.5038 93.3971 61.4671 93.0196C61.7123 93.0376 61.9403 93.0483 62.1785 93.0634C62.0805 93.1567 61.9845 93.2507 61.8882 93.3442C62.5659 93.1977 62.9918 93.246 63.3176 93.4801C62.51 93.5346 61.7042 93.589 60.8966 93.6438C61.0156 93.6598 61.1362 93.6758 61.2551 93.6912C60.6437 93.9338 61.2744 94.1611 60.1338 94.2166C60.1408 94.1057 60.1464 93.9948 60.1534 93.8833C59.7382 94.1806 58.6013 94.1834 58.964 94.5247C58.6206 94.421 58.5506 94.3544 58.3562 94.5403C57.4504 94.2838 56.8686 93.9528 57.191 93.5567C56.8547 93.6206 56.5181 93.6849 56.1836 93.7494C56.378 93.8577 56.5727 93.9652 56.7671 94.073C56.1819 94.0679 55.5925 94.0628 55.009 94.0582C54.953 93.7356 56.1354 93.9578 55.7942 93.6708C55.726 93.6132 55.4111 93.7373 55.3284 93.7049C54.4559 93.3533 55.8255 93.6067 55.5683 93.3371C54.2683 93.2539 55.3086 92.7999 53.518 93.1806C53.4707 93.0869 53.4199 92.9913 53.3761 92.898C52.7545 92.8914 52.8049 93.1035 52.2706 93.1434C51.9361 93.1684 51.5161 92.7936 51.1465 93.0482C51.0807 93.0954 51.7023 93.5528 50.3959 93.5337C49.382 93.5189 49.804 93.1933 49.2559 93.0774C48.7075 92.9607 47.453 93.4148 47.0833 92.8982C47.3705 92.967 47.7364 93.0043 48.0552 93.0605C48.1849 92.9604 48.3111 92.8615 48.439 92.7623C47.7101 92.8903 46.9567 92.7359 46.4662 92.9754C45.4938 92.6058 44.4063 92.9457 44.7006 93.3642C45.0207 93.304 44.6725 93.122 45.117 93.2381C45.1626 93.3353 45.2106 93.432 45.2562 93.5291C44.4993 93.5179 43.9736 93.5208 44.3188 93.2235C44.2641 93.2202 44.2097 93.2169 44.1553 93.2136C44.0928 93.2098 44.0304 93.2058 43.9677 93.2016C43.9454 93.4167 43.9251 93.6327 43.902 93.8479C43.7589 93.8713 43.615 93.8936 43.4717 93.9151C43.3138 93.8647 43.1566 93.8125 42.999 93.7589C43.2265 93.4215 43.5817 93.4343 42.3991 93.1861C42.3889 93.3041 42.3771 93.4215 42.3669 93.5395C41.3694 93.3233 41.3697 93.0413 40.1311 92.9006C41.1229 92.6127 41.5787 93.3741 41.6438 92.5516C41.8744 92.6257 42.1089 92.6979 42.3435 92.7664C42.3867 92.6492 42.4292 92.5318 42.4699 92.4144C41.2263 92.4227 38.9868 92.9079 38.2402 92.2041C38.1263 92.2472 38.0134 92.2815 37.8959 92.3279C37.1482 91.8395 36.6205 92.4528 35.9004 91.8232C35.8297 91.7544 36.1789 91.1628 35.1399 90.8638C35.139 90.9566 35.1077 91.1031 35.0954 91.2165C34.8848 91.0928 34.6781 90.9646 34.474 90.8357C34.4074 90.8996 34.3385 90.9626 34.2711 91.0267C34.6446 91.19 35.0223 91.3466 35.4027 91.4947C35.0708 91.4237 34.7363 91.3461 34.4054 91.2637C34.7831 91.5324 34.9784 91.5931 34.655 91.7152C34.2802 91.6073 33.9074 91.4933 33.5371 91.3714C33.4804 91.4094 33.4235 91.448 33.3664 91.4858C33.4877 91.7061 33.6147 91.9225 33.7417 92.1431C32.8085 91.6766 31.9759 91.3268 31.3923 90.7074C31.2937 90.601 31.8108 90.6041 30.9057 90.3991C30.942 90.2895 30.9599 90.1949 30.9912 90.0924C29.8602 89.9015 29.564 89.6404 28.6872 88.8663C29.2236 89.4273 28.718 88.9742 28.495 88.9777C28.341 88.9814 28.7882 89.2282 28.6966 89.272C28.606 89.3177 27.8531 89.2692 28.3303 89.5951C29.8926 89.6807 29.8378 90.6007 31.637 91.0441C31.3466 91.0142 31.0543 90.9798 30.7622 90.9415C30.8566 91.0517 30.9414 91.1506 31.0459 91.2675C30.1747 90.7191 30.5906 91.0051 30.1644 90.9198C29.7389 90.833 29.0119 90.5606 28.5464 90.3343C28.4 90.2633 28.6247 90.2119 28.3138 90.0197C28.1029 89.8905 27.3959 89.7391 27.4061 89.4232C27.4174 89.2197 28.578 89.3678 27.3249 88.5864C27.1855 88.2904 27.7513 88.7156 27.7761 88.7041C27.9911 88.5961 27.3185 87.9885 26.8896 87.8849C26.8536 87.8772 27.0366 88.1959 26.7037 88.048C25.9127 87.6927 25.6215 87.242 25.3433 86.7092C25.1185 86.9094 24.3208 86.7489 23.7069 86.0761C23.6162 86.1108 23.5265 86.1473 23.435 86.1819C23.5712 86.2399 23.7071 86.2973 23.8435 86.3532C23.9259 86.4926 24.026 86.6262 24.1023 86.7698C23.3527 86.2461 22.988 86.4635 22.5521 86.2801C21.069 85.6229 22.5069 85.4587 22.8266 85.4995C22.9181 85.6866 23.0012 85.8755 23.0935 86.0635C23.1464 85.9714 23.1998 85.8785 23.2549 85.7873C21.6141 84.2833 23.4573 85.0662 22.7889 84.1609C22.2297 84.3327 21.5937 83.7802 21.149 82.7844C21.0707 82.7003 20.994 82.614 20.9162 82.5295C20.8466 82.5647 20.7595 82.6408 20.7012 82.6497C19.8096 81.7459 20.3192 81.0599 20.3058 80.9255C20.2582 80.3133 19.6501 80.2705 19.5558 80.1474C19.1674 79.6331 19.2342 79.3603 18.8249 78.9011C18.3874 78.4016 18.4955 78.866 18.2658 78.7739C18.0814 78.6988 17.787 78.2602 17.5746 78.1329C17.7024 78.1578 17.8334 78.1911 17.9611 78.2139C17.7191 77.556 17.5562 77.0058 17.2286 76.3041C16.183 75.8419 16.9703 74.6346 16.2068 75.3278C16.4612 76.0316 16.5545 76.4523 16.5225 76.9263C16.2621 76.5025 16.012 76.0711 15.7715 75.6344C15.8074 75.4573 15.8596 75.32 15.8893 75.1195C15.5252 74.8785 15.2817 74.0485 15.0982 73.758C14.2457 72.3979 14.025 72.96 14.2193 71.3811C14.5925 72.3582 14.8957 72.249 15.2046 73.2226C15.3407 72.9362 15.1246 72.4691 15.4953 72.6888C15.1084 71.7912 14.9832 72.1678 14.6538 71.871C14.37 71.6137 14.1679 70.9675 13.9434 71.0726C14.054 70.9686 14.1653 70.8815 14.2767 70.7791C14.1008 70.1618 13.9451 69.5382 13.8075 68.9109C14.0046 69.1487 14.2041 69.3813 14.4047 69.6093C14.4087 69.399 14.4145 69.1885 14.4229 68.9785C14.3256 68.7988 14.2455 68.5952 14.1792 68.3781C13.7189 66.8699 13.8103 64.7855 12.9238 65.3516C12.7376 64.6135 12.8569 64.4924 12.9842 64.0449C12.8913 64.0172 12.8127 63.9879 12.7103 63.9622C12.701 63.4637 12.3104 63.1585 12.3064 62.7179C12.3018 62.2774 12.58 62.1116 12.0643 62.1515C12.1527 61.8476 12.2174 61.5503 12.2967 61.2501C12.1488 61.1085 12.0021 60.9668 11.8549 60.8269C11.8627 60.5572 11.8703 60.287 11.8784 60.0173C11.6087 59.9285 11.5074 58.8948 11.2535 58.4814C11.429 58.0048 12.2574 57.8495 11.9094 56.882C11.7091 56.9493 11.5095 57.016 11.3093 57.0833C11.3059 56.8463 11.3024 56.6088 11.2989 56.37C11.3633 56.3427 11.428 56.3173 11.4924 56.29C11.4952 56.4109 11.4977 56.5303 11.4998 56.6514C11.5929 56.5271 11.686 56.405 11.7797 56.2824C11.5414 55.9678 11.3024 55.6528 11.0627 55.3367C11.0302 55.8346 10.9983 56.3327 10.967 56.8305C10.6954 56.2687 10.7623 55.826 10.4885 55.3451C10.6823 54.8394 10.8808 54.9716 11.2269 55.0911C11.1669 54.9299 11.1074 54.7665 11.0473 54.6054C11.3794 54.6526 11.5076 54.3335 11.6776 55.3124C11.7524 55.2276 11.8229 55.1423 11.9016 55.0585C11.8558 54.9016 11.9098 54.7829 11.8408 54.6146C11.6524 54.1557 11.0334 53.8998 10.8486 53.9711C10.752 54.009 11.0386 54.441 10.8933 54.4507C10.5392 54.4738 10.4739 53.3631 10.4447 54.99C10.1199 54.5177 10.2616 54.3688 10.2091 53.786C10.1029 53.8539 9.99734 53.9204 9.89097 53.9865C9.88987 53.7116 9.88864 53.4363 9.88781 53.1613C10.5544 53.4091 10.3853 51.4145 11.2569 53.0647C11.1796 52.5406 11.103 52.0183 11.0277 51.4956C11.1101 51.5897 11.1919 51.684 11.2742 51.7782C11.2885 52.0183 11.3031 52.257 11.3183 52.497C11.3748 52.1997 11.4308 51.9019 11.4879 51.6045C11.2204 50.9829 10.9562 50.7715 10.6329 50.5276C10.5922 51.3221 10.8054 51.0221 10.9753 51.6004C10.8047 51.6135 10.6571 51.6716 10.4718 51.6555C10.7554 51.2816 10.3048 50.3399 10.2412 50.1133C10.0486 49.4234 10.4999 49.9037 10.413 49.4337C10.3262 48.9633 10.0112 48.4514 10.274 47.9997C10.085 48.0451 9.89421 48.1155 9.72648 48.178C9.51648 47.4607 9.7711 47.5608 9.78506 47.4794C10.0228 46.1765 9.48661 45.604 9.1588 44.235C9.13443 44.4222 9.11629 44.61 9.09603 44.7982C8.47746 43.8404 8.74373 44.516 8.79244 45.4463C8.66164 44.5915 8.21514 44.1771 7.98919 43.6007C7.76346 43.0244 7.73357 41.9638 7.79805 41.5609C8.19829 42.372 8.23713 43.3262 8.49254 44.2648C8.66675 44.117 8.81157 43.9784 9.00484 43.8232C8.4758 43.3277 8.68353 42.9368 8.70014 42.735C8.74836 42.1427 8.39632 42.2322 8.71077 41.8166C8.58188 41.8569 8.47322 41.8893 8.35304 41.9279C8.17382 40.7612 8.15772 39.467 7.51485 38.8139C7.82002 38.6808 8.11707 38.5668 8.42711 38.422C8.08867 37.981 8.25105 37.512 8.11232 37.1111C7.97364 36.7119 7.74581 36.9206 7.54871 36.4582C7.51231 36.3726 7.63749 36.1537 7.47331 35.9581C7.30868 35.7604 6.2434 35.1236 7.00937 34.8669C6.92946 34.4523 6.87915 34.0549 6.81069 33.6469C6.93488 34.0329 7.05755 34.4193 7.18109 34.8037C7.3038 34.4286 7.4269 34.0556 7.55071 33.6802C7.37177 33.6717 7.18967 33.6637 7.01318 33.6565C6.62279 32.7916 6.76946 32.0771 6.51918 31.175C6.47717 31.0244 6.21063 31.4535 6.16011 30.7579C6.10926 30.0622 6.64466 29.4301 6.16689 28.3238C6.14257 28.268 5.58414 28.0246 5.83982 27.5422C5.89781 27.4324 6.0911 27.806 6.14869 27.5693C6.20626 27.3324 6.09637 26.3498 6.32272 26.2254C6.23933 26.253 6.16282 26.3311 6.08174 26.3779C6.00797 26.2213 5.93379 26.063 5.86033 25.9045C6.00789 25.8586 6.15544 25.8114 6.30229 25.7656C5.76335 24.8879 5.08983 24.5141 4.99764 23.0707C4.85647 23.5103 4.71517 23.9501 4.57509 24.3877C4.75148 24.4647 4.92879 24.5417 5.10455 24.617C5.17347 25.2768 5.24352 25.9383 5.3131 26.598C5.50924 26.6692 5.70436 26.7386 5.90019 26.8099C5.91198 26.9862 5.92417 27.1607 5.93602 27.337C5.80145 27.3195 5.66744 27.3015 5.53243 27.2823C5.63198 27.6161 5.73218 27.9501 5.8312 28.2821C4.94977 27.7435 5.50633 26.3462 4.90136 26.5612C4.96707 26.3889 5.03354 26.2162 5.10025 26.0438C4.78399 26.0379 4.80791 25.7098 4.74472 25.1526C4.62059 25.3082 4.50132 25.4764 4.37389 25.6219C4.47611 25.0471 4.26363 24.1072 4.23307 23.5396C4.21971 23.2903 4.48995 23.4874 4.50132 23.4101C4.56257 23.0134 4.03305 22.3859 4.03345 22.2321C4.03571 21.3129 4.65793 20.5902 3.97726 19.725C4.05802 20.7436 3.99939 20.1924 3.80112 20.6007C3.73883 20.7286 3.82391 22.0484 3.57505 20.4245C3.54536 20.2342 3.46644 17.2122 4.05362 18.0922C3.83341 17.6451 3.61373 17.3047 3.39278 16.8989C4.21967 15.6307 3.31584 16.1944 2.84026 16.6105C2.80268 16.4375 2.76367 16.2737 2.72737 16.0951C3.36952 16.3604 3.01548 14.4194 2.59535 13.8214C2.45521 13.621 2.39783 14.2723 2.20838 13.7815C2.19908 13.5315 2.19503 13.2465 2.18783 12.9818C1.90237 13.4255 1.61491 12.7259 1.24915 12.8104C1.48091 12.2792 2.1048 11.7827 2.53342 11.9623C2.30326 11.6085 2.07241 11.2527 1.84052 10.8992C1.78913 11.0955 1.73912 11.2939 1.68799 11.4901C1.66491 10.1864 0.805066 8.67777 1.53287 8.25721C1.49361 8.09177 1.45474 7.9244 1.41548 7.75895C1.27294 7.73413 1.13045 7.7111 0.987813 7.6863C0.94916 6.9096 0.912306 6.13431 0.875032 5.35733C1.09347 6.01172 1.31424 6.13339 1.30332 6.86815C1.40079 6.56616 1.49842 6.25888 1.59759 5.9619C0.973646 4.98514 0.672213 4.8956 0.47235 3.27553C0.463123 3.20232 0.567463 1.92663 0.593382 1.87849C0.710574 1.65827 0.993563 1.89942 1.05507 1.79948C1.2275 1.52154 1.4988 -0.0104589 1.5883 5.3972e-05C2.68454 0.139603 3.62748 4.91906 3.93163 6.20177C7.06883 19.5099 8.92225 32.7705 11.6449 46.0748C11.6734 46.2115 11.7949 46.1248 11.8119 46.182C11.9159 46.5381 11.7781 46.9363 11.7958 47.0721C11.8341 47.3622 11.9945 47.1658 12.0353 47.3752C12.4539 49.5392 12.7404 51.6032 13.1947 53.7619C13.2242 53.9025 13.0462 53.7888 13.1211 54.0311C13.1606 54.1559 13.4682 54.5097 13.5277 54.7976C13.7354 55.803 13.8268 56.6644 14.0372 57.7265C14.1524 58.3074 14.3028 59.1833 14.4328 59.8326C14.4902 60.1193 14.6515 60.3976 14.71 60.6805C14.793 61.082 14.5684 61.042 14.5675 61.1065C14.5639 61.3896 14.8 61.381 14.8447 61.6401C14.9271 62.1221 14.7798 62.1788 14.9114 62.7849C15.0058 63.218 15.3195 64.1896 15.4611 64.7312C15.5191 65.7615 15.7673 66.9652 16.011 68.0079C16.0751 68.2793 16.1429 68.537 16.2088 68.7748C16.3894 69.4156 16.2042 69.5296 16.2723 69.7954C16.5221 70.7298 16.997 71.3458 17.3049 72.1884C17.7171 73.3035 17.974 74.3512 18.4823 75.3998C18.5654 75.5696 18.7152 75.4436 18.8032 75.605C19.1278 76.2027 19.5865 76.9425 19.8821 77.4723C20.2118 78.0615 20.1222 78.4238 20.5468 78.9433C20.6723 79.0944 20.8989 79.0026 21.1128 79.2476C21.454 79.6393 21.6358 80.2177 21.8479 80.5176C22.1392 80.9249 22.0488 80.4368 22.453 80.9714C22.4696 80.9932 22.4038 81.1826 22.5048 81.287C22.7995 81.5894 22.8703 81.4691 23.2748 81.9302C23.3104 81.9757 23.7572 82.6801 23.8169 82.737C24.148 83.082 24.8139 83.7855 25.051 83.9466C25.8941 84.5248 25.4495 83.803 25.7558 84.7883C26.1359 84.9278 26.5148 85.0555 26.9109 85.1944C26.6219 85.1303 27.3883 85.9284 27.462 85.9606C28.0338 86.2525 27.8419 85.8629 28.4844 86.3397C27.3314 86.1604 29.3135 86.9724 29.7263 87.1794C31.6874 88.2642 33.5111 89.2153 35.673 89.902C36.3961 90.1319 37.4017 90.2994 38.1816 90.4712C38.3636 90.5111 38.203 90.5908 38.3635 90.6277C38.5239 90.6632 38.3706 90.5028 38.5523 90.5475C39.6791 90.8227 40.5653 91.1864 41.6582 90.9986C41.7061 91.0455 41.7015 91.0787 41.7834 91.1327C42.4018 91.0087 43.3825 91.1784 44.1553 91.2831C44.5172 91.3307 44.8307 91.3755 45.0386 91.3916C46.1018 91.4729 46.3734 91.3006 47.1459 91.3413C48.1673 91.3959 49.7008 91.7424 49.016 91.1821C49.7167 91.1701 50.3912 91.1708 51.0989 91.2275C51.1777 91.2339 51.1234 91.3737 51.1549 91.3768C51.3546 91.3983 51.4197 91.2734 51.5545 91.2687C51.9203 91.256 51.3234 91.4016 51.8449 91.3634C52.12 91.343 52.2762 91.2351 53.04 91.2387C56.8327 91.2581 60.893 91.3139 64.8447 91.362C65.6404 91.3724 66.4276 91.3502 67.2058 91.2966C67.5083 91.2746 67.2981 91.1642 67.678 91.1399C68.9919 91.0764 71.3749 90.8593 72.4758 90.5168C73.5765 90.1874 73.2709 90.0784 73.9282 89.7955C74.0544 89.7394 73.9797 89.872 74.0987 89.8349C74.8967 89.587 75.8915 89.3759 76.5312 89.1256C76.9533 88.9608 76.8532 88.8284 77.1329 88.6895C77.5489 88.4822 78.0506 88.4142 78.276 88.3049C79.3329 87.788 79.9638 87.2721 80.9198 86.7358C80.8649 86.7303 80.8236 86.7188 80.7745 86.7098C81.8652 86.0163 82.9096 85.2505 83.9007 84.4172C83.8339 84.4332 83.7684 84.4473 83.7013 84.4623C84.863 83.4922 84.9454 83.831 84.3704 83.4071C84.4342 83.3157 84.4994 83.2168 84.5597 83.1297C84.7754 83.4236 85.6404 83.0001 86.5125 82.197C86.5786 82.138 86.7042 81.4779 86.972 81.7979C86.997 81.6178 87.0036 81.5047 87.0199 81.3511C87.2777 81.2462 87.5359 81.1329 87.7921 81.0179C87.864 80.9017 87.9369 80.7838 88.0069 80.6671C87.9563 80.6015 87.8812 80.5614 87.8461 80.4788C88.2315 79.9916 89.0665 79.0165 89.3298 78.5964C89.9987 77.5634 90.433 76.3869 91.0725 75.6461C91.2629 75.2213 90.9195 75.5646 91.2422 74.9579C91.3464 74.9216 91.4455 74.8874 91.5531 74.8477C91.4799 74.1897 91.7218 74.1776 92.0913 73.4898C92.3386 73.0219 92.3838 72.6742 92.5712 72.2107C92.6184 72.0931 92.7069 72.1432 92.7331 72.0602C92.8243 71.7828 92.9513 70.9559 93.0051 70.7583C93.265 69.8486 93.4764 68.9961 93.6605 68.1436C93.844 67.2893 94.0337 66.4462 94.237 65.5615C94.2815 65.3667 94.1343 65.6012 94.1808 65.3997C94.2554 65.0754 94.3594 65.2961 94.406 65.1089C94.5349 64.5867 94.3841 64.552 94.5303 63.8167C95.0123 61.3957 95.7069 58.6405 96.2449 56.1182C96.2614 56.0393 96.1752 56.0268 96.1924 55.9409C96.3057 55.3813 96.5389 54.8387 96.6437 54.3309C96.8182 53.4885 96.833 52.8319 97.0082 52.0004C97.3501 50.375 97.7142 48.9346 98.0678 47.2633C98.3575 45.8955 98.5959 44.7049 98.9109 43.2045C100.283 36.65 101.455 29.9156 102.967 23.3431C103.005 23.1758 103.054 23.2569 103.062 23.2051C103.137 22.7126 103.062 22.6521 103.275 22.5147C103.37 21.8873 103.279 21.6648 103.446 20.9176C103.535 20.5194 103.676 20.8586 103.713 20.1619C103.746 19.5328 103.494 20.1836 103.989 18.3927C104.002 18.3453 104.174 18.1337 104.222 17.7501C104.27 17.3648 104.09 17.7857 104.256 16.8684C104.647 14.7149 105.322 12.0255 105.815 9.52977C105.845 9.37333 106.101 7.85843 106.135 7.5562C106.202 6.97124 106.092 7.07404 106.23 6.3246C106.336 5.74554 106.532 5.28958 106.657 4.60871C106.671 4.52937 106.602 4.3777 106.723 3.87157ZM43.9647 94.0352C43.8187 94.2119 43.535 94.8812 42.6348 94.6452C42.5513 94.6226 43.0299 94.1868 42.5393 94.0926C43.0237 94.0674 43.4893 94.0636 43.9647 94.0345C43.9647 94.0348 43.9647 94.035 43.9647 94.0352ZM109.675 0.62653C109.532 1.26085 109.389 1.89733 109.246 2.53156C109.291 2.08311 109.337 1.63408 109.382 1.18745C109.48 0.999923 109.577 0.814135 109.675 0.62653ZM91.6316 79.5829C91.632 79.5824 91.6323 79.5819 91.6327 79.5813C91.3132 80.2097 90.9705 80.8324 90.6078 81.4433C90.6105 81.3527 90.6128 81.2619 90.6147 81.1716C90.8753 80.6748 91.1236 80.1711 91.3555 79.667C91.4475 79.6396 91.5396 79.6114 91.6316 79.5829ZM93.7115 74.4681C93.9352 74.0835 93.9857 74.2206 94.1668 74.0296C94.1666 74.0296 94.1665 74.0295 94.1663 74.0294C94.2141 73.9785 94.3433 73.7067 94.3876 73.5992C94.3142 73.6171 94.2372 73.6466 94.1629 73.6674C94.3928 72.6657 95.5341 70.8814 94.8795 73.4669C94.8195 73.4022 94.7592 73.3396 94.6989 73.2754C94.2745 74.5249 93.5123 75.777 93.7115 74.4681ZM33.5239 92.5471C32.3467 92.4846 31.9567 92.4189 30.791 91.6487C31.0084 91.641 31.225 91.6311 31.4407 91.6191C31.6088 91.7985 31.7789 91.9752 31.9528 92.1514C31.9534 92.1516 31.954 92.1518 31.9546 92.1521C32.0358 92.0739 32.1167 91.9953 32.1955 91.916C32.6311 92.1358 33.0769 92.3474 33.5239 92.5471ZM102.698 33.5646C103.169 33.3488 102.913 33.3867 102.836 34.2592C102.81 34.5614 102.94 34.2879 102.915 34.4742C102.785 35.4808 102.491 35.5039 102.39 35.253C102.493 34.6892 102.597 34.1198 102.698 33.5664C102.698 33.5658 102.698 33.5652 102.698 33.5646ZM107.77 7.7922C107.77 7.7916 107.77 7.79099 107.77 7.79037C107.861 7.78192 107.805 8.18685 107.976 7.75186C107.907 8.09522 107.838 8.43851 107.769 8.78359C107.781 8.68074 107.794 8.57581 107.806 8.47296C107.759 8.55633 107.711 8.63986 107.664 8.72322C107.738 8.86523 107.658 8.96696 107.553 9.32095C107.679 9.24279 107.805 9.16507 107.931 9.08682C107.817 9.49976 107.701 9.9141 107.587 10.3269C107.559 10.3266 107.53 10.3264 107.502 10.3261C107.506 10.4912 107.509 10.6547 107.513 10.8197C107.472 10.8561 107.432 10.8911 107.391 10.9275C107.377 11.1231 107.364 11.3191 107.351 11.5148C107.261 11.5569 107.311 11.1298 107.183 11.8789C107.147 11.634 107.112 11.3898 107.078 11.1433C107.308 10.0263 107.539 8.90921 107.77 7.7922ZM101.28 41.3562C101.507 40.1206 101.505 40.4812 101.661 40.8093C101.534 40.991 101.407 41.1746 101.28 41.3562ZM70.464 93.3118C70.135 93.574 69.7976 93.8299 69.4422 94.0773C68.692 94.3027 67.8921 94.0148 68.4464 93.8101C69.1048 93.5614 69.846 93.6433 70.464 93.3118ZM53.4853 93.9417C54.3942 94.0378 53.539 94.2913 53.3341 94.4393C53.0826 94.2042 52.732 94.2261 52.1689 94.2004C52.6977 94.1831 53.335 93.9252 53.4853 93.941C53.4853 93.9413 53.4853 93.9415 53.4853 93.9417ZM84.0445 87.5142C84.3368 87.2831 84.5932 87.0123 84.8901 86.8502C84.9263 87.0531 84.3021 87.3455 84.8408 87.2522C84.6568 87.4067 84.4708 87.5593 84.2851 87.7091C84.3379 87.5293 84.1269 87.5887 84.0457 87.5141C84.0453 87.5142 84.0449 87.5142 84.0445 87.5142ZM99.0784 53.3284C98.7646 53.9943 98.8123 54.1421 98.7945 54.8732C98.6311 54.9437 98.5589 54.0532 98.6123 53.5152C98.7677 53.4537 98.9231 53.3918 99.0784 53.3284ZM3.04348 21.8921C3.41236 21.9926 3.70923 23.2245 3.7373 23.8607C3.67299 23.7973 3.60794 23.7338 3.54282 23.6705C3.37677 23.0784 3.20996 22.484 3.04348 21.8921ZM51.9009 94.1843C51.9952 94.1913 52.0845 94.1965 52.1689 94.2004C52.0751 94.2034 51.9846 94.1994 51.9009 94.1843ZM18.6554 79.5023C19.0444 79.5959 18.6257 78.8209 19.1384 79.7584C19.1386 79.7583 19.1388 79.7581 19.139 79.758C19.4864 80.3731 19.5653 80.51 19.9456 81.042C19.5323 81.0688 18.6132 80.0641 19.6875 81.5844C19.7026 81.6036 19.8322 81.4397 19.9946 81.6877C20.0449 81.764 20.0973 82.0983 20.3497 82.4712C20.4308 82.5911 21.101 83.4505 20.1348 82.3251C19.98 82.512 19.743 82.6051 19.5671 82.7557C19.1334 82.3413 19.2188 81.6961 18.8392 81.2102C18.2775 80.4877 17.6214 80.3587 18.0407 79.863C18.5931 80.4212 19.3836 81.4615 19.2021 81.8273C19.6659 82.419 20.0389 82.3839 19.7799 81.8262C18.0729 79.9128 19.6918 81.022 18.2303 79.3363C18.143 79.3624 18.0142 79.3369 17.9532 79.3934C17.8416 78.656 18.5146 79.4721 18.6554 79.5023ZM21.4772 84.0456C21.039 83.8509 20.602 83.647 20.1667 83.4308C20.3899 83.2342 20.7491 83.2483 21.3443 83.6428C21.3869 83.7768 21.4318 83.9121 21.4772 84.0456ZM9.40858 49.6062C9.21983 49.58 9.02465 49.4479 8.83211 49.3617C8.95345 49.2014 8.46541 46.0825 8.93326 47.6248C9.00075 47.8489 8.97335 49.3045 9.40858 49.6062ZM99.8905 48.4289C99.7503 48.7795 99.6099 49.1286 99.4692 49.4773C99.5376 48.9105 99.6053 48.3432 99.6736 47.7764C99.7454 47.9944 99.818 48.2108 99.8905 48.4289ZM64.3586 93.5866C64.5155 93.5914 63.9944 93.7801 64.6125 93.7494C64.1517 93.8702 63.7202 93.973 63.27 94.0878C63.135 93.999 62.9987 93.9104 62.8638 93.8213C62.7587 93.8789 62.6515 93.9361 62.5464 93.9938C62.6095 93.8634 62.6656 93.736 62.7322 93.6035C63.4908 93.8815 63.6648 93.565 64.3586 93.5866ZM84.9554 85.6233C85.2288 85.7279 84.4872 86.5632 85.3399 85.8861C85.2945 86.1484 85.1004 86.4376 84.6107 86.8546C84.4898 86.8691 84.3695 86.8829 84.2489 86.8956C84.3452 87.0405 84.2572 87.1945 84.0445 87.5142C84.0442 87.5143 84.0438 87.5143 84.0434 87.5143C83.2677 88.1175 83.2734 88.0279 82.918 87.931C83.8494 87.4612 83.7165 87.2233 84.1679 86.6737C84.4762 86.2949 84.9826 85.9295 84.9554 85.6233ZM10.0835 52.898C9.6363 52.254 9.48163 52.9442 9.54875 51.6277C9.64263 51.6928 9.73586 51.7583 9.82963 51.8234C9.91504 52.1814 9.99955 52.5396 10.0835 52.898ZM88.1288 83.7612C87.7835 83.5619 87.0987 83.8404 87.4728 84.3702C88.0334 83.9733 87.5434 83.9647 88.1288 83.7612ZM53.7953 93.2316C55.0654 93.2535 54.8253 93.7617 54.3032 94.0184C54.2226 93.9258 54.1421 93.8329 54.0633 93.7407C53.8407 93.7832 53.6182 93.8259 53.3957 93.8681C53.5288 93.6558 53.6621 93.4432 53.7953 93.2316ZM96.5162 63.1064C96.5732 64.1082 96.8597 62.1069 96.881 62.803C96.8989 63.3589 96.509 64.008 96.4049 63.7117C96.4375 63.527 96.4756 63.3218 96.5158 63.1083C96.5159 63.1076 96.516 63.107 96.5162 63.1064ZM95.4811 68.6291C95.6269 68.5799 95.6738 68.6029 95.6948 68.5547C95.7173 68.5035 95.709 68.3699 95.7619 67.9738C95.7911 67.7562 96.2336 66.0702 95.867 66.7415C95.7518 67.3154 95.6271 67.9192 95.5045 68.5162C95.4967 68.5539 95.4889 68.5915 95.4811 68.6291ZM39.0635 93.3475C39.0806 93.1955 40.4603 93.0414 40.6181 93.139C40.6181 93.1388 40.6182 93.1386 40.6182 93.1383C41.0561 93.4284 39.637 93.2914 40.2108 93.689C38.8818 93.2292 38.3632 93.8151 38.6179 92.9355C39.4142 93.0332 39.01 93.1528 39.0635 93.3475ZM0.688139 5.40557C0.688015 5.40496 0.687891 5.40435 0.687768 5.40374C0.695576 5.49397 0.533668 6.28317 0.408591 6.21645C0.322072 5.32422 0.55867 5.43853 0.0566842 4.69305C0.155842 4.62658 0.25308 4.56715 0.352416 4.49708C0.482317 4.80687 0.648517 4.95956 0.688139 5.40557ZM9.10807 46.1884C9.2223 46.4995 9.13709 47.1267 9.22356 47.49C8.20377 46.4842 8.65126 44.9455 9.10807 46.1884ZM105.371 19.8407C105.371 19.8416 105.371 19.8426 105.371 19.8435C105.371 19.8432 105.371 19.8428 105.37 19.8425C105.371 19.8419 105.371 19.8413 105.371 19.8407ZM13.8323 71.1838C13.8664 71.1291 13.8998 71.0943 13.9327 71.0757C13.936 71.0748 13.9393 71.0738 13.9426 71.0729C13.9058 71.1076 13.8689 71.1439 13.8323 71.1838ZM36.2871 92.8177C35.8004 92.4654 37.6951 92.5775 38.2662 92.757C38.2056 92.8486 38.1818 92.9377 38.0621 93.0329C37.6369 92.688 36.3724 92.8827 36.2871 92.8177ZM78.4191 90.5815C77.077 91.2071 78.4933 89.7136 78.8221 90.2078C78.8255 90.22 78.4542 90.5645 78.4191 90.5815ZM47.9208 93.7042C48.2953 93.4474 47.5427 93.3798 48.7461 93.4236C48.8162 93.4898 48.8862 93.5561 48.9562 93.6222C48.6111 93.6493 48.2658 93.6769 47.9208 93.7042ZM68.9932 92.3742C67.2248 92.7509 65.4588 93.0156 66.7027 93.6235C66.843 93.5939 66.9849 93.5639 67.1241 93.5324C67.1222 93.2097 67.6506 93.3523 68.4092 93.2757C68.5029 93.138 68.914 93.057 68.9776 92.9393C69.0989 92.7136 68.6088 92.6309 68.9932 92.3742ZM103.024 29.3841C103.055 29.4208 103.087 29.4568 103.118 29.4934C103.101 29.7887 103.085 30.0847 103.069 30.38C103.007 30.3192 102.945 30.2584 102.883 30.1977C102.93 29.9267 102.977 29.6569 103.024 29.3859C103.024 29.3853 103.024 29.3847 103.024 29.3841ZM23.3242 84.7393C22.7161 85.141 23.236 85.4701 24.3744 85.9608C24.0127 85.5623 23.6614 85.1539 23.3242 84.7393ZM92.0903 76.3205C92.2413 76.3552 92.3918 76.3898 92.5439 76.4218C92.6895 75.7839 92.479 75.8183 92.1689 75.9963C92.1429 76.105 92.1174 76.2118 92.0903 76.3205ZM94.9352 67.8115C94.8533 68.0626 94.9942 67.9545 94.9864 67.9809C94.9367 68.1456 94.8951 68.2732 94.8594 68.3859C94.7561 68.7072 94.7033 68.9047 94.6281 69.4995C94.6348 69.6025 94.6432 69.7035 94.6497 69.8079C95.0349 69.5175 94.9421 69.218 95.2775 68.4712C95.1471 68.5923 95.0158 68.7109 94.8833 68.8282C94.9207 68.6901 94.9571 68.5517 94.9926 68.4128C95.0665 68.123 95.1403 67.8334 95.2143 67.5431C95.1935 67.4853 95.173 67.4274 95.1523 67.3696C95.0807 67.5159 95.0031 67.6662 94.9352 67.8115ZM103.8 26.0888C103.894 25.6683 103.99 25.2458 104.084 24.8252C104.029 24.798 103.974 24.7714 103.919 24.7442C103.879 25.1918 103.839 25.6411 103.8 26.0888ZM17.5746 78.1329C17.5244 78.1231 17.4745 78.114 17.4258 78.1083C17.4682 78.0866 17.5191 78.0999 17.5746 78.1329ZM1.18009 4.14599C1.17539 3.64832 0.97656 2.96998 0.890255 2.44049C0.568588 2.54849 0.928876 3.86579 0.824521 4.37501C0.898667 4.43846 1.18224 4.35632 1.18009 4.14599ZM55.5524 93.2525C55.6751 93.1369 55.7975 93.022 55.9184 92.9067C56.2145 92.9196 56.5113 92.9332 56.8091 92.946C56.8179 92.8518 56.8265 92.7567 56.8353 92.6625C55.5232 92.782 55.8257 92.5107 55.1762 92.2386C55.3023 92.5768 55.4263 92.9146 55.5524 93.2525ZM106.165 12.5763C106.013 13.5125 106.017 13.8562 106.289 13.3662C106.317 13.0306 106.346 12.6931 106.375 12.3577C106.305 12.4311 106.235 12.5046 106.165 12.5763ZM12.7561 61.7202C12.4719 60.9684 12.9289 60.8626 12.5196 60.1544C12.5164 60.5786 12.5126 61.0029 12.5097 61.4252C12.5916 61.5226 12.6744 61.6227 12.7561 61.7202ZM34.4023 90.2361C34.157 89.9951 33.3406 90.4305 32.7007 89.6095C32.445 89.6647 32.2638 89.7432 32.0334 89.8031C31.9994 89.6112 31.9549 89.4115 31.9289 89.2229C31.9284 89.2226 31.9279 89.2224 31.9273 89.2221C31.168 88.926 31.5581 89.3332 31.4699 89.4819C31.4309 89.5438 30.9309 89.1688 31.0357 89.3921C31.2157 89.7849 32.4174 90.1536 32.2976 90.4475C31.9312 90.1814 31.1163 89.8989 31.2559 90.2019C31.4129 90.5385 32.3212 90.5068 32.7289 90.8788C32.236 90.1242 33.5857 90.8408 33.623 91.2636C34.5761 91.2797 33.8295 90.9 32.9748 90.5746C33.6045 90.4977 32.7799 90.3488 32.7537 90.0621C33.3303 90.1562 35.1217 90.9177 34.4023 90.2361ZM76.227 90.3537C75.6621 90.6035 74.7099 90.7858 74.3773 91.1213C74.1817 91.3211 75.138 91.1047 74.5631 91.5085C75.1357 91.296 75.237 91.1715 75.0812 91.0427C75.2037 90.977 75.328 90.9103 75.45 90.8435C75.5216 90.8533 75.5947 90.8619 75.6665 90.8711C75.7089 90.7785 75.7513 90.6862 75.7909 90.5942C75.9319 90.5552 76.0741 90.5145 76.2147 90.4738C76.2171 90.4341 76.2324 90.3942 76.227 90.3537ZM8.25331 39.3953C8.29074 39.5664 8.32783 39.7359 8.36598 39.9069C8.42119 39.8761 8.47812 39.8411 8.53442 39.8071C8.57923 39.7819 8.62404 39.7566 8.66887 39.7314C8.51726 39.8656 8.39775 40.7411 8.64938 41.0489C8.77548 41.2037 9.0213 40.7437 9.22443 41.467C9.10158 40.9379 8.95885 40.4536 8.82796 39.9421C8.93397 39.969 9.04061 39.9938 9.14654 40.0206C9.14663 40.0203 9.14671 40.02 9.14679 40.0196C9.13445 39.8434 9.12278 39.665 9.1105 39.4888C8.82471 39.4572 8.53949 39.4268 8.25331 39.3953ZM91.5915 76.629C91.4231 77.2005 91.3764 77.406 91.6904 77.2607C91.6908 77.2602 91.6912 77.2597 91.6916 77.2592C91.7212 77.023 91.7475 76.7883 91.7714 76.5537C91.7117 76.5786 91.652 76.6031 91.5915 76.629ZM16.1989 73.185C14.7452 72.4087 16.3927 74.793 16.5322 74.1429C16.5361 74.1168 16.1264 73.3362 16.1989 73.185ZM53.5619 92.9499C53.9105 92.9429 54.26 92.9367 54.6104 92.9298C54.5298 92.8176 54.4473 92.7057 54.3667 92.5933C54.0986 92.7116 53.8299 92.8309 53.5619 92.9499ZM105.092 16.5696C104.869 16.899 104.623 17.8102 104.694 18.2942C104.762 18.0612 104.83 17.8282 104.898 17.5952C104.825 18.0467 104.754 18.4936 104.679 18.9484C104.885 19.015 104.87 18.4703 105.088 17.6993C105.122 17.5801 105.538 16.8574 105.398 16.5505C105.369 16.4886 105.174 17.3073 105.175 16.711C105.114 16.9596 105.072 17.1762 105.018 17.4118C104.965 17.419 104.911 17.4259 104.858 17.4347C104.936 17.1457 105.014 16.8587 105.092 16.5696ZM72.838 91.5166C72.0167 91.7161 71.9442 91.8573 71.8235 92.124C72.2059 92.0085 72.5833 91.8866 72.96 91.7567C72.9184 91.6772 72.8794 91.5969 72.838 91.5166ZM103.48 24.1459C103.359 24.6054 103.525 24.4318 103.511 24.6236C103.455 25.3488 103.266 25.8128 103.18 26.5227C103.165 26.4714 103.151 26.4242 103.136 26.3748C103.136 26.3754 103.136 26.376 103.136 26.3766C102.348 29.6617 102.996 27.9835 103.353 25.9948C103.41 25.958 103.466 25.923 103.522 25.886C103.62 24.9837 103.709 24.1512 103.48 24.1459ZM21.899 82.4252C21.9141 82.3619 22.3719 82.3718 21.8634 82.0355C21.1847 82.0066 21.8754 82.427 21.8687 82.6966C21.7248 82.6085 21.5798 82.5153 21.4378 82.4257C21.9844 83.2471 22.1753 83.2617 22.1946 82.7608C22.1949 82.7265 21.8844 82.4889 21.899 82.4252ZM18.4134 77.186C17.702 77.4421 18.617 78.329 18.79 78.164C18.7098 78.0172 18.5351 77.9706 18.4912 77.7898C18.4468 77.6071 18.5711 77.4804 18.4134 77.186ZM47.6771 92.3501C47.6403 92.3472 47.2707 92.0705 47.3074 92.2861C47.7647 92.7976 48.686 92.4717 48.5249 92.2948C48.2201 92.3024 48.0169 92.378 47.6771 92.3495C47.6771 92.3497 47.6771 92.3499 47.6771 92.3501ZM106.159 10.9539C106.145 10.969 105.896 11.8595 105.93 11.9878C105.976 12.097 106.036 12.1588 106.088 12.2445C106.128 11.7342 106.383 10.7364 106.159 10.9557C106.159 10.9551 106.159 10.9545 106.159 10.9539Z" fill="#49672E"/>
</svg>
